# xmcd
#
# Track frame offsets:
# 150
# 13016
# 22142
# 33059
# 51333
# 61502
# 73892
# 86169
# 93624
# 107480
# 117151
# 129618
# 143797
# 156368
# 168809
# 181268
# 191646
# 203901
#
# Disc length: 2903 seconds
#
#
# Revision: 0
# Processed by: cddbd v1.5.2PL0 Copyright (c) Steve Scherf et al.
# Submitted via: FreeRIP 2.951 
#
DISCID=f80b5512
DTITLE=Greatest  Country Drinking Songs - Greatest  Country Drinking Songs
DYEAR=2006
DGENRE=Country
TTITLE0=Swinging Doors - Merle Haggard
TTITLE1=Chug-A-Lug - Roger Miller
TTITLE2=Wine Me Up - Faron Young
TTITLE3=Night Life - Ray Price and Willie Nelson
TTITLE4=There Stands The Glass - Webb Pierce
TTITLE5=Wasted Days And Wasted Nights - Freddy Fender
TTITLE6=Rednecks, White Socks, and Blue Ribbion Beer - Johnny Russell
TTITLE7=I Gotta Get Drunk - Willie Nelson
TTITLE8=Sittin' And Thinkin' - Charlie Rich
TTITLE9=Sorrow On The Rocks - Porter Wagoner
TTITLE10=Barstool Mountian - Moe Bandy
TTITLE11=The Lord Knows I'm Drinking - Cal Smith
TTITLE12=Drivin' Nails In My Coffin - Ernest Tub and Boxcar Willie
TTITLE13=Drinking Tequila - Jim Reeves
TTITLE14=Georgia In A Jug - Johnny Paycheck
TTITLE15=Two Six Packs Away - Dave Dudley
TTITLE16=Tonight The Bottle Let Me Down - Merle Haggard
TTITLE17=The Girls All Get Prettier at Closing Time(LIVE) - Micky Gilley
EXTD=
EXTT0=
EXTT1=
EXTT2=
EXTT3=
EXTT4=
EXTT5=
EXTT6=
EXTT7=
EXTT8=
EXTT9=
EXTT10=
EXTT11=
EXTT12=
EXTT13=
EXTT14=
EXTT15=
EXTT16=
EXTT17=
PLAYORDER=
